<svg width="18" height="24" viewBox="0 0 18 24" fill="none" xmlns="http://www.w3.org/2000/svg">
<path d="M0.566528 5.0779C0.566528 4.11004 1.35113 3.32544 2.31899 3.32544H15.6815C16.6494 3.32544 17.434 4.11004 17.434 5.0779C17.434 5.44085 17.1398 5.73508 16.7768 5.73508H1.2237C0.860754 5.73508 0.566528 5.44085 0.566528 5.0779Z" fill="#28466E"/>
<path fill-rule="evenodd" clip-rule="evenodd" d="M6.3074 0.915771C5.26605 0.915771 4.42188 1.75995 4.42188 2.80129V3.56637H5.86744V2.82774C5.86744 2.43723 6.18401 2.12067 6.57452 2.12067H11.4254C11.8159 2.12067 12.1325 2.43723 12.1325 2.82774V3.56637H13.5785V2.80129C13.5785 1.75995 12.7343 0.915771 11.693 0.915771H6.3074Z" fill="#28466E"/>
<path fill-rule="evenodd" clip-rule="evenodd" d="M2.03427 6.69849C1.76152 6.69849 1.5457 6.92926 1.56394 7.2014L2.49604 21.1047C2.57072 22.2186 3.49607 23.084 4.6125 23.084H13.3877C14.5041 23.084 15.4295 22.2186 15.5042 21.1047L16.4363 7.2014C16.4545 6.92926 16.2387 6.69849 15.9659 6.69849H2.03427ZM9.00243 8.5C8.66973 8.5 8.40002 8.76971 8.40002 9.10241V20.4277C8.40002 20.7604 8.66973 21.0301 9.00243 21.0301C9.33514 21.0301 9.60484 20.7604 9.60484 20.4277V9.10241C9.60484 8.76971 9.33514 8.5 9.00243 8.5ZM12.7737 9.10184C12.7882 8.76945 13.0695 8.51176 13.4018 8.52628C13.7342 8.54079 13.9919 8.822 13.9774 9.15439L13.4834 20.4689C13.4689 20.8013 13.1877 21.059 12.8553 21.0445C12.5229 21.03 12.2652 20.7487 12.2797 20.4164L12.7737 9.10184ZM4.60184 8.47372C4.26945 8.48824 4.01176 8.76945 4.02628 9.10184L4.52028 20.4164C4.53479 20.7487 4.81601 21.0064 5.14839 20.9919C5.48078 20.9774 5.73846 20.6962 5.72395 20.3638L5.22995 9.04928C5.21544 8.7169 4.93422 8.45921 4.60184 8.47372Z" fill="#28466E"/>
</svg>
